<svg id="Icons" xmlns="http://www.w3.org/2000/svg" viewBox="0 0 48 48"><defs><style>.cls-1{fill:#ffe500;}.cls-2{fill:#ebcb00;}.cls-3{fill:#fff48c;}.cls-4,.cls-8{fill:#45413c;}.cls-11,.cls-4,.cls-5,.cls-6{stroke:#45413c;stroke-linecap:round;}.cls-11,.cls-4,.cls-5{stroke-linejoin:round;}.cls-5,.cls-6{fill:none;}.cls-6{stroke-miterlimit:10;}.cls-7{fill:#ffaa54;}.cls-8{opacity:0.15;}.cls-9{fill:#f0f0f0;}.cls-10,.cls-11{fill:#fff;}</style></defs><title>86-determined-face</title><g id="_Group_" data-name="&lt;Group&gt;"><circle id="_Ellipse_" data-name="&lt;Ellipse&gt;" class="cls-1" cx="19.27" cy="22.27" r="17.77"/><path id="_Compound_Path_" data-name="&lt;Compound Path&gt;" class="cls-2" d="M19.27,4.5A17.78,17.78,0,1,0,37.05,22.27,17.78,17.78,0,0,0,19.27,4.5Zm0,32.88A16.22,16.22,0,1,1,35.49,21.16,16.22,16.22,0,0,1,19.27,37.38Z"/><ellipse id="_Ellipse_2" data-name="&lt;Ellipse&gt;" class="cls-3" cx="19.27" cy="8.05" rx="5.33" ry="1.33"/><circle id="_Ellipse_3" data-name="&lt;Ellipse&gt;" class="cls-4" cx="11.72" cy="23.16" r="0.89"/><path id="_Path_" data-name="&lt;Path&gt;" class="cls-5" d="M15.12,21.83s-2.67-4-5.62-2.67"/><path id="_Path_2" data-name="&lt;Path&gt;" class="cls-5" d="M23.42,21.83s2.67-4,5.63-2.67"/><circle id="_Ellipse_4" data-name="&lt;Ellipse&gt;" class="cls-4" cx="26.83" cy="23.16" r="0.89"/><path id="_Path_3" data-name="&lt;Path&gt;" class="cls-6" d="M14.83,31.16a8,8,0,0,1,8.89,0"/><path id="_Path_4" data-name="&lt;Path&gt;" class="cls-7" d="M32.16,27.16c0,.74-1,1.34-2.22,1.34s-2.22-.6-2.22-1.34,1-1.33,2.22-1.33S32.16,26.43,32.16,27.16Z"/><path id="_Path_5" data-name="&lt;Path&gt;" class="cls-7" d="M6.39,27.16c0,.74,1,1.34,2.22,1.34s2.22-.6,2.22-1.34-1-1.33-2.22-1.33S6.39,26.43,6.39,27.16Z"/><ellipse id="_Ellipse_5" data-name="&lt;Ellipse&gt;" class="cls-8" cx="18.94" cy="44.46" rx="14.22" ry="1.5"/><circle id="_Ellipse_6" data-name="&lt;Ellipse&gt;" class="cls-5" cx="19.27" cy="22.27" r="17.77"/><path class="cls-9" d="M33.49,11.61H3.24a.9.9,0,0,0-.71.35A16.61,16.61,0,0,0,.58,15.24a.89.89,0,0,0,.06.85.92.92,0,0,0,.75.41h34.7A17.67,17.67,0,0,0,33.49,11.61Z"/><path class="cls-10" d="M33.49,11.61H3.24a.9.9,0,0,0-.71.35,16.36,16.36,0,0,0-1,1.43H34.67A17.7,17.7,0,0,0,33.49,11.61Z"/><path class="cls-5" d="M33.49,11.61H3.24a.9.9,0,0,0-.71.35A16.61,16.61,0,0,0,.58,15.24a.89.89,0,0,0,.06.85.92.92,0,0,0,.75.41h34.7A17.67,17.67,0,0,0,33.49,11.61Z"/><path id="_Path_6" data-name="&lt;Path&gt;" class="cls-11" d="M34.38,14.28s4.88,5.45,12.14,4.79a.88.88,0,0,1,.93,1.15,34.16,34.16,0,0,1-1.82,4.24.89.89,0,0,1-1.11.44C42.08,24,34.51,20.61,34.38,14.28Z"/><path id="_Path_7" data-name="&lt;Path&gt;" class="cls-11" d="M34.31,12.89s1.66,8.8,7.11,14.27a.88.88,0,0,1-.31,1.44,21.34,21.34,0,0,1-5.92,1.2.89.89,0,0,1-.93-.75C33.82,26.16,32.48,16.13,34.31,12.89Z"/><path id="_Path_8" data-name="&lt;Path&gt;" class="cls-9" d="M37.49,14.05a2.89,2.89,0,0,1-2.89,2.89h-.44a2.89,2.89,0,1,1,0-5.77h.44A2.88,2.88,0,0,1,37.49,14.05Z"/><path class="cls-10" d="M34.16,13h.44a2.89,2.89,0,0,1,2.75,2,3,3,0,0,0,.14-.9,2.88,2.88,0,0,0-2.89-2.88h-.44a2.88,2.88,0,0,0-2.89,2.88,3,3,0,0,0,.14.9A2.9,2.9,0,0,1,34.16,13Z"/><path id="_Path_9" data-name="&lt;Path&gt;" class="cls-5" d="M37.49,14.05a2.89,2.89,0,0,1-2.89,2.89h-.44a2.89,2.89,0,1,1,0-5.77h.44A2.88,2.88,0,0,1,37.49,14.05Z"/></g></svg>